<svg xmlns="http://www.w3.org/2000/svg" xmlns:xlink="http://www.w3.org/1999/xlink" width="85" zoomAndPan="magnify" viewBox="0 0 63.75 30.000001" height="40" preserveAspectRatio="xMidYMid meet" version="1.0"><defs><g/><clipPath id="0b0940458c"><path d="M 1 19 L 61 19 L 61 28 L 1 28 Z M 1 19 " clip-rule="nonzero"/></clipPath><clipPath id="2362b742dc"><path d="M 2.03125 12.625 L 62.730469 20.488281 L 61.609375 29.160156 L 0.910156 21.296875 Z M 2.03125 12.625 " clip-rule="nonzero"/></clipPath><clipPath id="562b8fa93e"><path d="M 2.03125 12.625 L 62.730469 20.488281 L 61.609375 29.160156 L 0.910156 21.296875 Z M 2.03125 12.625 " clip-rule="nonzero"/></clipPath><clipPath id="2ebeb44244"><path d="M 3 17 L 16 17 L 16 19 L 3 19 Z M 3 17 " clip-rule="nonzero"/></clipPath><clipPath id="592b929ddd"><path d="M 2.03125 12.625 L 62.730469 20.488281 L 61.609375 29.160156 L 0.910156 21.296875 Z M 2.03125 12.625 " clip-rule="nonzero"/></clipPath><clipPath id="c24c890776"><path d="M 2.03125 12.625 L 62.730469 20.488281 L 61.609375 29.160156 L 0.910156 21.296875 Z M 2.03125 12.625 " clip-rule="nonzero"/></clipPath><clipPath id="0d8717e34f"><path d="M 55 22 L 62 22 L 62 28 L 55 28 Z M 55 22 " clip-rule="nonzero"/></clipPath><clipPath id="a7d24aa707"><path d="M 2.03125 12.625 L 62.730469 20.488281 L 61.609375 29.160156 L 0.910156 21.296875 Z M 2.03125 12.625 " clip-rule="nonzero"/></clipPath><clipPath id="8cadb4f723"><path d="M 2.03125 12.625 L 62.730469 20.488281 L 61.609375 29.160156 L 0.910156 21.296875 Z M 2.03125 12.625 " clip-rule="nonzero"/></clipPath></defs><g fill="#ffffff" fill-opacity="1"><g transform="translate(12.829984, 15.393216)"><g><path d="M 5.921875 -0.53125 L 4.5625 0.171875 C 4.382812 0.171875 4.203125 0.0976562 4.015625 -0.046875 C 3.828125 -0.203125 3.675781 -0.394531 3.5625 -0.625 L 2.359375 0.140625 L 2.015625 0.171875 C 1.546875 0.171875 1.160156 0.0351562 0.859375 -0.234375 C 0.554688 -0.515625 0.40625 -0.847656 0.40625 -1.234375 C 0.40625 -1.765625 0.691406 -2.179688 1.265625 -2.484375 L 3.390625 -2.546875 L 3.390625 -3.53125 C 3.390625 -4.113281 3.210938 -4.488281 2.859375 -4.65625 C 2.523438 -4.632812 2.25 -4.585938 2.03125 -4.515625 L 1.84375 -3.3125 L 0.90625 -3.28125 C 0.738281 -3.6875 0.65625 -4.132812 0.65625 -4.625 L 0.671875 -4.84375 C 1.078125 -5.019531 1.5625 -5.175781 2.125 -5.3125 C 2.695312 -5.445312 3.128906 -5.515625 3.421875 -5.515625 C 3.703125 -5.515625 3.972656 -5.441406 4.234375 -5.296875 C 4.492188 -5.148438 4.707031 -4.957031 4.875 -4.71875 C 4.945312 -4.582031 4.988281 -4.304688 5 -3.890625 L 5 -1.234375 C 5 -1.054688 5.09375 -0.96875 5.28125 -0.96875 L 5.8125 -1.03125 Z M 2.25 -0.8125 C 2.539062 -0.820312 2.921875 -0.914062 3.390625 -1.09375 L 3.390625 -1.890625 L 3.109375 -1.90625 C 2.378906 -1.90625 2.015625 -1.707031 2.015625 -1.3125 C 2.015625 -1.101562 2.09375 -0.9375 2.25 -0.8125 Z M 2.25 -0.8125 "/></g></g></g><g fill="#ffffff" fill-opacity="1"><g transform="translate(18.851099, 15.393216)"><g><path d="M 9.203125 -0.859375 C 9.566406 -0.753906 9.828125 -0.648438 9.984375 -0.546875 L 9.9375 0 L 7.015625 0 L 6.984375 -0.375 L 7.59375 -0.65625 L 7.59375 -3.203125 C 7.59375 -3.921875 7.351562 -4.28125 6.875 -4.28125 C 6.644531 -4.28125 6.316406 -4.160156 5.890625 -3.921875 L 5.90625 -0.859375 C 6.195312 -0.753906 6.429688 -0.648438 6.609375 -0.546875 L 6.5625 0 L 3.734375 0 L 3.6875 -0.375 L 4.296875 -0.65625 L 4.296875 -3.203125 C 4.296875 -3.921875 4.054688 -4.28125 3.578125 -4.28125 C 3.359375 -4.28125 3.035156 -4.164062 2.609375 -3.9375 L 2.609375 -0.84375 C 2.867188 -0.757812 3.09375 -0.660156 3.28125 -0.546875 L 3.234375 0 L 0.234375 0 L 0.203125 -0.375 C 0.398438 -0.488281 0.664062 -0.609375 1 -0.734375 L 1 -4.453125 L 0.171875 -4.546875 L 0.09375 -5.078125 C 0.726562 -5.316406 1.382812 -5.445312 2.0625 -5.46875 L 2.609375 -4.9375 L 2.609375 -4.46875 C 3.328125 -4.988281 3.925781 -5.3125 4.40625 -5.4375 C 4.644531 -5.414062 4.894531 -5.335938 5.15625 -5.203125 C 5.414062 -5.078125 5.617188 -4.894531 5.765625 -4.65625 C 5.804688 -4.570312 5.832031 -4.492188 5.84375 -4.421875 C 6.582031 -4.972656 7.203125 -5.3125 7.703125 -5.4375 C 8.046875 -5.414062 8.363281 -5.300781 8.65625 -5.09375 C 8.957031 -4.882812 9.128906 -4.617188 9.171875 -4.296875 L 9.203125 -3.65625 Z M 9.203125 -0.859375 "/></g></g></g><g fill="#ffffff" fill-opacity="1"><g transform="translate(28.978515, 15.393216)"><g/></g></g><g fill="#ffffff" fill-opacity="1"><g transform="translate(31.911589, 15.393216)"><g><path d="M 6.3125 -0.796875 L 4.03125 0.171875 C 3.125 0.203125 2.378906 0.0390625 1.796875 -0.3125 C 1.210938 -0.664062 0.785156 -1.128906 0.515625 -1.703125 C 0.253906 -2.273438 0.125 -2.890625 0.125 -3.546875 C 0.125 -4.222656 0.265625 -4.863281 0.546875 -5.46875 C 0.828125 -6.082031 1.242188 -6.570312 1.796875 -6.9375 C 2.359375 -7.3125 3.039062 -7.5 3.84375 -7.5 C 4.695312 -7.5 5.457031 -7.265625 6.125 -6.796875 C 6.132812 -6.566406 6.113281 -6.25 6.0625 -5.84375 C 6.019531 -5.445312 5.957031 -5.101562 5.875 -4.8125 L 4.859375 -4.8125 L 4.59375 -6.1875 C 4.082031 -6.414062 3.523438 -6.53125 2.921875 -6.53125 C 2.554688 -6.257812 2.285156 -5.875 2.109375 -5.375 C 1.929688 -4.882812 1.84375 -4.363281 1.84375 -3.8125 C 1.84375 -2.9375 2.054688 -2.238281 2.484375 -1.71875 C 2.910156 -1.207031 3.488281 -0.960938 4.21875 -0.984375 L 6.046875 -1.578125 Z M 6.3125 -0.796875 "/></g></g></g><g fill="#ffffff" fill-opacity="1"><g transform="translate(38.353292, 15.393216)"><g><path d="M 0.15625 -2.671875 C 0.15625 -3.503906 0.410156 -4.179688 0.921875 -4.703125 C 1.429688 -5.222656 2.070312 -5.484375 2.84375 -5.484375 C 3.613281 -5.484375 4.242188 -5.21875 4.734375 -4.6875 C 5.234375 -4.15625 5.484375 -3.460938 5.484375 -2.609375 C 5.484375 -1.753906 5.238281 -1.066406 4.75 -0.546875 C 4.257812 -0.0351562 3.632812 0.21875 2.875 0.21875 C 2.101562 0.21875 1.457031 -0.0507812 0.9375 -0.59375 C 0.414062 -1.144531 0.15625 -1.835938 0.15625 -2.671875 Z M 3.328125 -0.734375 C 3.671875 -0.984375 3.84375 -1.566406 3.84375 -2.484375 C 3.84375 -3.085938 3.753906 -3.582031 3.578125 -3.96875 C 3.398438 -4.351562 3.125 -4.546875 2.75 -4.546875 C 2.53125 -4.546875 2.34375 -4.492188 2.1875 -4.390625 C 1.925781 -4.035156 1.796875 -3.46875 1.796875 -2.6875 C 1.796875 -2.09375 1.890625 -1.609375 2.078125 -1.234375 C 2.273438 -0.867188 2.566406 -0.6875 2.953125 -0.6875 C 3.085938 -0.6875 3.210938 -0.703125 3.328125 -0.734375 Z M 3.328125 -0.734375 "/></g></g></g><g fill="#ffffff" fill-opacity="1"><g transform="translate(44.053419, 15.393216)"><g><path d="M 6.296875 -0.53125 L 4.9375 0.171875 C 4.75 0.171875 4.550781 0.0820312 4.34375 -0.09375 C 4.144531 -0.269531 3.992188 -0.476562 3.890625 -0.71875 L 2.640625 0.171875 C 1.929688 0.179688 1.335938 -0.0703125 0.859375 -0.59375 C 0.390625 -1.125 0.15625 -1.789062 0.15625 -2.59375 C 0.15625 -3.425781 0.425781 -4.113281 0.96875 -4.65625 C 1.519531 -5.195312 2.210938 -5.46875 3.046875 -5.46875 C 3.285156 -5.46875 3.523438 -5.441406 3.765625 -5.390625 L 3.765625 -7.140625 L 2.9375 -7.21875 L 2.859375 -7.75 C 3.492188 -8 4.148438 -8.128906 4.828125 -8.140625 L 5.359375 -7.640625 L 5.359375 -1.265625 C 5.359375 -1.066406 5.453125 -0.96875 5.640625 -0.96875 L 6.1875 -1.03125 Z M 1.84375 -2.75 C 1.84375 -2.269531 1.945312 -1.867188 2.15625 -1.546875 C 2.375 -1.222656 2.675781 -1.0625 3.0625 -1.0625 C 3.257812 -1.0625 3.492188 -1.117188 3.765625 -1.234375 L 3.765625 -4.296875 C 3.410156 -4.472656 3.054688 -4.5625 2.703125 -4.5625 L 2.515625 -4.546875 C 2.066406 -4.128906 1.84375 -3.53125 1.84375 -2.75 Z M 1.84375 -2.75 "/></g></g></g><g fill="#ffffff" fill-opacity="1"><g transform="translate(50.417648, 15.393216)"><g><path d="M 4.515625 -2.640625 L 1.6875 -2.671875 C 1.71875 -2.117188 1.890625 -1.691406 2.203125 -1.390625 C 2.515625 -1.085938 2.910156 -0.9375 3.390625 -0.9375 C 3.785156 -0.9375 4.253906 -1.070312 4.796875 -1.34375 L 5.03125 -0.75 L 3.296875 0.140625 L 2.9375 0.171875 C 2.125 0.171875 1.457031 -0.0820312 0.9375 -0.59375 C 0.414062 -1.113281 0.15625 -1.769531 0.15625 -2.5625 C 0.15625 -3.382812 0.421875 -4.078125 0.953125 -4.640625 C 1.484375 -5.203125 2.128906 -5.484375 2.890625 -5.484375 C 3.554688 -5.484375 4.097656 -5.28125 4.515625 -4.875 C 4.941406 -4.46875 5.15625 -3.9375 5.15625 -3.28125 Z M 2.5 -4.640625 C 2.113281 -4.421875 1.867188 -4.015625 1.765625 -3.421875 L 3.671875 -3.53125 C 3.617188 -3.84375 3.484375 -4.101562 3.265625 -4.3125 C 3.046875 -4.53125 2.789062 -4.640625 2.5 -4.640625 Z M 2.5 -4.640625 "/></g></g></g><g fill="#ffffff" fill-opacity="1"><g transform="translate(0.907257, 16.79177)"><g><path d="M 12.34375 -0.921875 L 12.3125 0 L 8.703125 0 L 6.25 -4.609375 L 4.75 -4.59375 L 4.75 -1.15625 L 6.375 -0.921875 L 6.359375 0 L 0.578125 0 L 0.46875 -0.578125 C 0.820312 -0.804688 1.332031 -1.050781 2 -1.3125 L 2 -10.796875 L 0.671875 -10.96875 L 0.6875 -11.890625 L 6.453125 -12.03125 C 7.835938 -12.03125 8.972656 -11.679688 9.859375 -10.984375 C 10.742188 -10.285156 11.1875 -9.410156 11.1875 -8.359375 C 11.1875 -7.648438 10.96875 -6.988281 10.53125 -6.375 C 10.09375 -5.769531 9.503906 -5.3125 8.765625 -5 L 11.1875 -1.0625 Z M 4.75 -6.109375 C 5.15625 -6.023438 5.546875 -5.984375 5.921875 -5.984375 C 6.773438 -5.984375 7.390625 -6.195312 7.765625 -6.625 C 8.148438 -7.0625 8.34375 -7.625 8.34375 -8.3125 C 8.34375 -9.363281 7.984375 -10.132812 7.265625 -10.625 L 4.75 -10.34375 Z M 4.75 -6.109375 "/></g></g></g><g fill="#ffffff" fill-opacity="1"><g transform="translate(55.788134, 16.037588)"><g><path d="M 2.46875 -5.578125 C 2.46875 -5.367188 2.546875 -5.1875 2.703125 -5.03125 C 2.859375 -4.875 3.320312 -4.601562 4.09375 -4.21875 C 4.875 -3.84375 5.398438 -3.484375 5.671875 -3.140625 C 5.953125 -2.796875 6.09375 -2.398438 6.09375 -1.953125 C 6.09375 -1.296875 5.828125 -0.753906 5.296875 -0.328125 C 4.773438 0.0859375 4.082031 0.296875 3.21875 0.296875 C 2.257812 0.296875 1.285156 0.0351562 0.296875 -0.484375 L 1.03125 -2.21875 C 1.9375 -1.550781 2.851562 -1.09375 3.78125 -0.84375 C 3.988281 -1.019531 4.09375 -1.242188 4.09375 -1.515625 C 4.09375 -1.734375 4.003906 -1.925781 3.828125 -2.09375 C 3.648438 -2.269531 3.1875 -2.539062 2.4375 -2.90625 C 1.6875 -3.269531 1.179688 -3.613281 0.921875 -3.9375 C 0.660156 -4.269531 0.53125 -4.65625 0.53125 -5.09375 C 0.53125 -5.757812 0.820312 -6.300781 1.40625 -6.71875 C 1.988281 -7.132812 2.734375 -7.34375 3.640625 -7.34375 C 4.484375 -7.34375 5.203125 -7.179688 5.796875 -6.859375 L 5.8125 -6.453125 C 5.8125 -5.878906 5.726562 -5.347656 5.5625 -4.859375 L 4.421875 -4.859375 L 4.0625 -6.15625 C 3.6875 -6.25 3.34375 -6.289062 3.03125 -6.28125 C 2.65625 -6.144531 2.46875 -5.910156 2.46875 -5.578125 Z M 2.46875 -5.578125 "/></g></g></g><g clip-path="url(#0b0940458c)"><g clip-path="url(#2362b742dc)"><g clip-path="url(#562b8fa93e)"><path fill="#ffffff" d="M 1.597656 21.238281 C 5.425781 19.855469 9.667969 19.972656 13.660156 20.390625 C 17.957031 20.835938 22.195312 21.671875 26.402344 22.609375 C 30.660156 23.570312 34.894531 24.625 39.175781 25.488281 C 41.304688 25.910156 43.453125 26.277344 45.613281 26.570312 C 47.636719 26.84375 49.6875 27.121094 51.742188 27.140625 C 53.8125 27.160156 55.925781 26.855469 57.667969 25.660156 C 59.195312 24.609375 60.425781 22.867188 60.289062 20.960938 C 60.230469 20.164062 58.984375 20.1875 58.886719 20.964844 C 58.683594 22.617188 57.855469 23.929688 56.4375 24.808594 C 54.847656 25.800781 52.863281 25.964844 51.042969 25.949219 C 46.902344 25.894531 42.773438 25.199219 38.71875 24.390625 C 30.496094 22.734375 22.394531 20.3125 14.019531 19.523438 C 9.753906 19.109375 5.394531 19.039062 1.40625 20.792969 C 1.121094 20.917969 1.300781 21.347656 1.597656 21.238281 Z M 1.597656 21.238281 " fill-opacity="1" fill-rule="nonzero"/></g></g></g><g clip-path="url(#2ebeb44244)"><g clip-path="url(#592b929ddd)"><g clip-path="url(#c24c890776)"><path fill="#ffffff" d="M 3.558594 18.75 C 7.367188 17.898438 11.167969 18.070312 15.015625 18.542969 C 15.222656 18.570312 15.34375 18.226562 15.113281 18.171875 C 11.34375 17.105469 7.222656 17.496094 3.496094 18.582031 C 3.417969 18.609375 3.457031 18.773438 3.558594 18.75 Z M 3.558594 18.75 " fill-opacity="1" fill-rule="nonzero"/></g></g></g><g clip-path="url(#0d8717e34f)"><g clip-path="url(#a7d24aa707)"><g clip-path="url(#8cadb4f723)"><path fill="#ffffff" d="M 55.953125 27.699219 C 57.382812 27.6875 58.761719 27.183594 59.871094 26.304688 C 60.4375 25.859375 60.9375 25.332031 61.316406 24.726562 C 61.625 24.246094 62.195312 23.394531 61.894531 22.824219 C 61.757812 22.558594 61.46875 22.484375 61.222656 22.652344 C 60.761719 22.949219 60.71875 23.757812 60.484375 24.246094 C 60.210938 24.804688 59.859375 25.316406 59.441406 25.765625 C 58.507812 26.746094 57.269531 27.386719 55.933594 27.570312 C 55.84375 27.574219 55.867188 27.699219 55.953125 27.699219 Z M 55.953125 27.699219 " fill-opacity="1" fill-rule="nonzero"/></g></g></g></svg>